<svg width="25" height="25" viewBox="0 0 25 25" fill="none" xmlns="http://www.w3.org/2000/svg">
<path d="M4.71558 11.9656C4.30136 11.9656 3.96558 12.3014 3.96558 12.7156C3.96558 13.1298 4.30136 13.4656 4.71558 13.4656V11.9656ZM20.7156 13.4656C21.1298 13.4656 21.4656 13.1298 21.4656 12.7156C21.4656 12.3014 21.1298 11.9656 20.7156 11.9656V13.4656ZM4.71558 5.96559C4.30136 5.96559 3.96558 6.30138 3.96558 6.71559C3.96558 7.1298 4.30136 7.46559 4.71558 7.46559V5.96559ZM20.7156 7.46559C21.1298 7.46559 21.4656 7.1298 21.4656 6.71559C21.4656 6.30138 21.1298 5.96559 20.7156 5.96559V7.46559ZM4.71558 17.9656C4.30136 17.9656 3.96558 18.3014 3.96558 18.7156C3.96558 19.1298 4.30136 19.4656 4.71558 19.4656V17.9656ZM20.7156 19.4656C21.1298 19.4656 21.4656 19.1298 21.4656 18.7156C21.4656 18.3014 21.1298 17.9656 20.7156 17.9656V19.4656ZM4.71558 13.4656H20.7156V11.9656H4.71558V13.4656ZM4.71558 7.46559H20.7156V5.96559H4.71558V7.46559ZM4.71558 19.4656H20.7156V17.9656H4.71558V19.4656Z" fill="black"/>
</svg>
